<?xml version="1.0" standalone="no"?>
<!DOCTYPE svg PUBLIC "-//W3C//DTD SVG 20010904//EN"
 "http://www.w3.org/TR/2001/REC-SVG-20010904/DTD/svg10.dtd">
<svg version="1.0" xmlns="http://www.w3.org/2000/svg"
 width="616.000000pt" height="454.000000pt" viewBox="0 0 616.000000 454.000000"
 preserveAspectRatio="xMidYMid meet">
<metadata>
Created by potrace 1.16, written by Peter Selinger 2001-2019
</metadata>
<g transform="translate(0.000000,454.000000) scale(0.100000,-0.100000)"
fill="#000000" stroke="none">
<path d="M500 4524 c-179 -46 -350 -185 -429 -345 -76 -155 -71 -65 -71 -1402
0 -1342 -5 -1252 73 -1402 97 -186 281 -319 492 -354 53 -9 676 -11 2550 -9
2335 3 2484 4 2540 21 240 70 429 264 486 497 20 80 20 2435 1 2495 -74 222
-185 362 -356 445 -155 76 82 70 -2716 69 -2155 0 -2523 -2 -2570 -15z m5055
-248 c94 -20 151 -50 216 -115 72 -72 108 -147 120 -245 11 -94 11 -2192 0
-2277 -19 -145 -109 -267 -246 -331 l-70 -33 -2500 0 -2500 0 -67 32 c-132 62
-222 178 -247 317 -17 93 -14 2242 3 2322 19 87 53 151 116 214 63 63 130 99
215 116 91 18 4876 19 4960 0z"/>
<path d="M4239 4114 c-105 -13 -242 -52 -335 -95 -315 -146 -563 -447 -642
-779 -49 -202 -44 -430 13 -618 54 -180 165 -361 301 -492 182 -175 347 -263
594 -317 103 -23 348 -22 453 1 362 78 658 306 818 631 90 184 126 366 115
580 -22 430 -279 808 -677 994 -109 51 -207 78 -349 96 -133 17 -150 17 -291
-1z m302 -308 c104 -20 159 -40 262 -94 151 -79 298 -233 366 -384 120 -263
115 -521 -15 -767 -116 -219 -303 -368 -549 -437 -73 -21 -257 -29 -343 -15
-284 44 -534 234 -653 496 -54 119 -72 207 -72 350 0 153 22 251 85 380 49 98
80 141 166 229 129 132 259 199 477 245 64 14 194 12 276 -3z"/>
<path d="M3913 3584 c-43 -18 -100 -77 -118 -121 -8 -19 -15 -63 -15 -97 1
-77 30 -139 88 -183 96 -73 227 -63 309 23 90 93 90 234 1 331 -53 58 -187 81
-265 47z m144 -143 c81 -50 27 -177 -67 -156 -38 8 -60 40 -60 85 0 39 13 61
45 78 29 16 46 14 82 -7z"/>
<path d="M1160 4111 c-270 -37 -496 -251 -556 -526 -17 -78 -20 -1156 -3
-1237 31 -152 87 -254 196 -361 72 -71 152 -119 252 -155 l76 -27 595 -3 c414
-2 612 0 650 8 206 42 386 181 475 365 64 133 65 143 65 790 l0 583 -26 88
c-14 49 -37 109 -51 134 -91 157 -243 278 -410 327 -51 15 -128 17 -633 19
-316 1 -600 -1 -630 -5z m1246 -338 c105 -55 194 -180 194 -273 l0 -30 -316 0
-316 0 -34 -34 -34 -34 0 -122 0 -122 34 -34 34 -34 322 0 322 0 -4 -352 -3
-353 -34 -68 c-42 -87 -91 -137 -174 -176 l-65 -31 -576 0 c-557 0 -577 1
-631 21 -73 27 -154 102 -191 176 l-29 58 -3 576 c-2 566 -2 578 19 633 27 74
73 133 133 174 93 62 83 61 716 59 l575 -2 61 -32z"/>
<path d="M1286 1750 c-39 -25 -54 -55 -77 -152 -23 -97 -24 -142 -3 -162 36
-37 114 -1 144 67 l20 42 0 -47 c0 -37 5 -50 22 -62 66 -46 158 28 158 126 0
99 -104 108 -161 14 l-19 -31 0 32 c0 42 -25 66 -62 61 -28 -4 -29 -3 -22 26
9 44 11 46 50 46 38 0 54 21 34 45 -17 20 -49 19 -84 -5z"/>
<path d="M5323 1750 c-17 -10 -36 -27 -42 -38 -18 -34 -62 -224 -59 -256 4
-39 30 -46 68 -18 l27 20 17 -20 c14 -15 25 -19 48 -14 34 7 98 51 98 67 0 18
-29 21 -52 5 -27 -19 -38 -20 -38 -3 0 6 17 21 37 32 73 39 83 106 16 113 -37
4 -85 -33 -103 -80 -14 -35 -38 -68 -50 -68 -4 0 4 48 19 108 l27 107 36 3
c39 3 56 25 37 48 -16 19 -48 17 -86 -6z"/>
<path d="M2303 1721 c-51 -24 -75 -66 -71 -124 3 -37 6 -42 28 -42 21 0 24 4
22 25 -7 56 -3 75 18 92 47 38 49 12 9 -116 -14 -48 -25 -66 -45 -74 -50 -24
-22 -35 93 -38 99 -3 114 -1 137 17 29 23 33 50 11 69 -18 15 -45 -2 -45 -30
0 -15 -5 -16 -51 -7 -37 7 -49 14 -44 24 3 8 8 26 11 39 4 17 13 24 30 24 13
0 24 -5 24 -11 0 -6 8 -9 17 -7 24 4 37 67 15 76 -9 3 -18 0 -20 -6 -2 -7 -15
-12 -29 -12 -20 0 -23 4 -19 20 3 11 9 29 12 40 8 29 57 27 77 -2 18 -28 34
-17 43 30 l7 32 -94 0 c-71 0 -104 -5 -136 -19z"/>
<path d="M801 1698 c-52 -25 -81 -69 -81 -120 0 -42 30 -81 55 -72 17 7 18 3
9 -20 -3 -9 -12 -16 -20 -16 -11 0 -41 -38 -32 -41 2 -1 31 -3 64 -5 47 -3 65
0 75 12 10 13 9 16 -9 20 -12 4 -19 12 -16 20 15 48 16 48 35 -3 25 -66 77
-113 124 -113 37 0 75 28 75 55 0 8 6 15 14 15 22 0 74 66 81 104 23 121 -109
147 -164 33 -26 -54 -27 -95 -1 -122 13 -14 16 -25 10 -35 -14 -22 -41 -2 -67
51 -37 74 -38 93 -8 109 35 19 57 63 49 95 -14 55 -114 72 -193 33z"/>
<path d="M4530 1704 c-91 -40 -138 -139 -94 -202 17 -24 49 -29 57 -9 4 9 6 9
6 -1 1 -7 -10 -18 -24 -24 -15 -6 -24 -18 -23 -27 2 -12 20 -16 75 -18 62 -3
74 -1 82 16 13 24 4 32 -27 24 -24 -6 -25 -4 -19 27 4 18 7 36 7 41 0 5 12 9
26 9 44 0 91 29 110 68 15 32 15 39 3 61 -28 50 -108 66 -179 35z"/>
<path d="M1628 1679 c-10 -5 -18 -17 -18 -25 0 -8 -11 -19 -25 -24 -27 -10
-34 -40 -10 -40 18 0 18 1 0 -71 -17 -65 -9 -99 24 -99 21 0 101 56 101 70 0
17 -29 23 -45 10 -23 -19 -27 -7 -14 44 12 48 40 64 53 30 4 -10 12 -14 22
-10 14 5 15 2 8 -21 -4 -16 -8 -48 -8 -73 -1 -53 20 -64 64 -32 27 20 27 20
43 1 21 -24 43 -24 88 -1 35 18 37 18 59 0 29 -24 71 -23 104 3 34 27 34 68 0
109 -30 35 -27 48 6 30 18 -10 25 -9 38 4 39 39 -43 75 -94 41 -32 -21 -33
-73 0 -112 24 -29 24 -53 1 -53 -7 0 -15 9 -18 20 -4 16 -13 20 -39 18 -18 -1
-45 -8 -61 -15 -24 -12 -28 -12 -33 2 -8 19 2 74 17 91 6 8 23 10 44 7 26 -4
36 -2 41 11 9 24 -14 46 -48 46 -38 0 -105 -64 -114 -109 -4 -17 -13 -31 -20
-31 -18 0 -17 5 1 68 9 29 13 57 10 62 -10 17 -51 11 -79 -11 -21 -17 -26 -18
-26 -5 0 9 -8 16 -18 16 -13 0 -18 8 -17 27 0 30 -12 37 -37 22z"/>
<path d="M3471 1661 c-9 -6 -12 -19 -7 -43 5 -29 1 -42 -26 -79 -31 -42 -33
-43 -36 -19 -2 13 1 41 8 63 13 45 5 77 -19 77 -27 0 -42 -23 -48 -72 -6 -45
-29 -82 -45 -72 -13 8 0 64 23 97 11 15 17 32 14 37 -9 14 -63 12 -110 -5 -34
-12 -41 -12 -55 0 -38 35 -126 0 -147 -58 -6 -19 -8 -16 -13 17 -6 49 -29 65
-70 49 -17 -6 -32 -7 -36 -2 -9 16 -50 10 -77 -11 -25 -20 -25 -20 -30 0 -6
22 -45 28 -64 9 -8 -8 -16 -7 -31 2 -15 10 -27 10 -44 2 -16 -7 -28 -7 -41 1
-14 9 -26 6 -55 -10 -38 -22 -52 -60 -21 -58 15 1 15 -4 3 -55 -19 -78 -18
-81 15 -81 28 0 30 4 41 54 6 29 17 62 25 72 18 24 18 14 1 -59 -11 -49 -11
-59 0 -64 32 -12 48 3 62 57 7 30 20 62 29 70 14 13 15 13 9 -5 -25 -69 -29
-104 -17 -119 19 -22 35 -20 70 10 36 30 42 59 10 51 -15 -4 -19 -2 -15 10 3
8 9 25 12 38 8 31 56 31 49 0 -35 -151 -47 -190 -60 -197 -8 -5 -15 -16 -15
-24 0 -12 13 -14 67 -12 44 2 68 7 71 16 2 7 -5 16 -17 19 -38 10 -24 73 17
73 28 0 101 69 104 98 0 9 4 -3 7 -28 7 -53 39 -78 86 -66 36 9 84 61 92 98 4
19 12 28 24 28 15 0 19 -8 20 -37 2 -54 12 -96 25 -100 6 -2 27 8 48 22 45 30
44 30 48 3 5 -33 21 -32 69 5 57 43 107 136 93 174 -10 30 -23 37 -43 24z"/>
<path d="M3785 1660 c-3 -6 -17 -7 -30 -4 -15 4 -36 -1 -55 -13 -30 -17 -32
-17 -41 0 -14 23 -60 22 -93 -4 -75 -59 -88 -199 -19 -199 23 0 100 47 107 65
8 23 -19 29 -46 11 -24 -17 -48 -21 -48 -7 0 9 98 73 118 77 16 3 15 -20 -3
-79 -12 -41 -12 -49 0 -53 32 -12 49 1 61 49 17 66 41 102 59 87 8 -7 20 -8
26 -4 9 5 10 2 5 -11 -19 -50 -26 -108 -15 -121 16 -20 31 -18 73 11 31 21 36
22 34 7 -2 -13 4 -17 27 -17 28 0 30 3 41 53 11 47 40 99 51 89 2 -2 -4 -23
-12 -47 -32 -91 -5 -136 56 -91 36 27 47 10 14 -23 -30 -30 -32 -59 -5 -86 23
-23 81 -27 120 -7 31 15 60 71 60 115 0 19 9 70 21 114 11 45 17 84 12 88 -15
14 -103 -17 -134 -45 -16 -16 -34 -43 -41 -61 -6 -18 -20 -35 -30 -37 -22 -6
-22 -1 -3 54 28 77 -4 114 -63 73 -20 -14 -22 -14 -22 0 0 25 -45 19 -79 -10
l-31 -26 0 27 c0 25 -3 27 -30 23 -16 -3 -30 -1 -30 4 0 12 -48 10 -55 -2z"/>
<path d="M4736 1619 c-56 -44 -84 -150 -49 -184 21 -22 65 -14 108 20 l32 24
11 -24 c16 -35 58 -42 101 -19 26 14 44 35 64 77 26 54 50 77 41 40 -2 -10
-13 -56 -24 -102 -12 -53 -27 -91 -40 -103 -11 -11 -18 -23 -15 -29 10 -15
132 -11 138 5 7 18 -1 26 -25 26 -15 0 -17 5 -12 28 10 39 12 42 39 42 55 0
120 97 113 170 -4 43 -28 58 -68 43 -17 -6 -32 -7 -36 -2 -9 16 -50 10 -76
-11 -25 -19 -26 -19 -43 0 -22 24 -67 26 -101 3 -26 -17 -64 -81 -64 -107 0
-9 -6 -13 -15 -10 -8 3 -24 -1 -37 -10 -27 -19 -38 -20 -38 -3 0 6 17 21 37
32 47 25 73 67 57 92 -17 27 -65 28 -98 2z"/>
<path d="M515 896 c-13 -19 -15 -58 -13 -237 l3 -214 50 0 50 0 3 149 3 150
157 -157 c161 -160 183 -174 216 -141 14 13 16 50 16 245 l0 229 -50 0 -50 0
0 -157 0 -158 -158 158 c-169 169 -194 184 -227 133z"/>
<path d="M1480 905 c-28 -34 -277 -455 -272 -460 3 -3 29 -5 58 -5 l54 0 97
165 c54 90 100 161 104 157 3 -4 21 -33 38 -64 l32 -58 -63 0 c-64 0 -64 0
-81 -36 -10 -19 -15 -40 -12 -45 4 -5 53 -9 110 -9 l104 0 31 -55 31 -55 60 0
c41 0 59 4 58 13 0 6 -62 113 -137 237 -127 209 -139 225 -168 228 -19 2 -36
-3 -44 -13z"/>
<path d="M2014 906 c-3 -8 -4 -31 -2 -52 l3 -39 83 -3 82 -3 0 -184 0 -185 55
0 55 0 0 185 0 184 83 3 82 3 0 50 0 50 -218 3 c-180 2 -218 0 -223 -12z"/>
<path d="M2675 908 c-3 -7 -4 -115 -3 -238 l3 -225 53 -3 52 -3 -2 238 -3 238
-48 3 c-32 2 -49 -1 -52 -10z"/>
<path d="M3168 909 c-49 -14 -117 -74 -139 -123 -25 -55 -25 -158 0 -211 23
-49 74 -99 123 -119 49 -21 244 -22 291 -3 48 20 95 64 120 111 17 32 22 58
22 116 0 107 -37 170 -125 216 -41 21 -231 30 -292 13z m273 -136 c26 -26 33
-42 37 -85 3 -44 0 -59 -20 -88 -29 -43 -72 -59 -163 -59 -78 -1 -126 17 -158
60 -24 33 -26 103 -3 146 27 53 57 63 173 61 101 -3 103 -4 134 -35z"/>
<path d="M3820 901 c-6 -12 -10 -107 -10 -240 l0 -221 50 0 50 0 0 156 0 156
158 -161 c128 -132 162 -161 184 -161 54 0 59 23 56 266 l-3 219 -50 0 -50 0
-3 -149 -3 -150 -153 152 c-132 131 -157 152 -184 152 -21 0 -35 -7 -42 -19z"/>
<path d="M4782 908 c-20 -25 -272 -449 -272 -459 0 -5 26 -9 58 -9 l57 1 97
165 96 165 36 -59 c20 -33 36 -62 36 -66 0 -3 -27 -6 -59 -6 -57 0 -60 -1 -81
-35 -12 -19 -19 -39 -15 -45 4 -6 50 -10 110 -10 l104 0 33 -55 33 -55 56 0
c30 0 58 2 61 5 5 5 -244 426 -271 459 -16 19 -64 21 -79 4z"/>
<path d="M5347 914 c-4 -4 -7 -112 -7 -241 l0 -233 205 0 205 0 0 50 0 50
-150 0 -150 0 -2 188 -3 187 -45 3 c-25 2 -49 0 -53 -4z"/>
<path d="M297 303 c-4 -3 -7 -71 -7 -150 l0 -143 35 0 35 0 0 110 0 111 81 -3
c65 -2 84 -7 93 -21 22 -34 -4 -52 -85 -57 l-74 -5 0 -30 c0 -29 1 -30 57 -33
51 -3 59 -6 83 -37 23 -31 32 -35 70 -35 24 0 46 4 49 8 3 5 -10 24 -29 42
l-33 32 19 32 c23 38 25 104 3 135 -27 38 -74 51 -187 51 -57 0 -107 -3 -110
-7z"/>
<path d="M702 291 c-75 -36 -104 -145 -57 -217 30 -47 73 -64 158 -64 93 0
129 17 158 72 37 72 17 163 -46 204 -41 27 -160 30 -213 5z m179 -80 c17 -13
23 -29 23 -56 0 -52 -30 -75 -99 -75 -68 0 -105 26 -105 76 0 53 28 74 99 74
43 0 65 -5 82 -19z"/>
<path d="M997 303 c-4 -3 -7 -71 -7 -150 l0 -143 135 0 c131 0 137 1 160 25
26 25 35 91 15 111 -6 6 -6 23 2 47 15 49 -1 83 -47 103 -35 14 -245 21 -258
7z"/>
<path d="M1416 300 c-112 -36 -132 -208 -31 -270 46 -29 176 -29 223 0 35 22
72 88 72 130 0 44 -36 107 -72 126 -38 19 -149 28 -192 14z m164 -90 c30 -30
27 -83 -6 -109 -35 -27 -122 -29 -153 -4 -32 27 -37 73 -11 106 19 24 28 27
86 27 51 0 68 -4 84 -20z"/>
<path d="M1677 304 c-4 -4 -7 -22 -7 -41 l0 -33 50 0 50 0 0 -110 0 -110 35 0
35 0 0 109 0 109 55 4 54 3 3 -110 3 -110 38 -3 38 -3 -3 148 -3 148 -170 3
c-94 2 -174 0 -178 -4z"/>
<path d="M2146 300 c-66 -20 -115 -103 -100 -167 24 -98 64 -123 202 -123
l102 0 0 35 0 35 -90 0 c-83 0 -93 2 -115 25 -32 31 -33 74 -2 103 19 18 37
22 112 24 l90 3 0 35 0 35 -85 2 c-47 1 -98 -2 -114 -7z"/>
<path d="M2414 300 c-30 -12 -54 -49 -54 -83 0 -70 45 -97 159 -97 44 0 82 -4
85 -8 14 -23 -16 -31 -124 -34 l-115 -3 -3 -32 -3 -33 135 0 c122 0 138 2 156
20 24 24 34 62 26 95 -14 54 -37 65 -141 65 -88 0 -95 1 -95 20 0 18 8 20 113
22 l112 3 0 35 0 35 -115 2 c-63 1 -125 -2 -136 -7z"/>
<path d="M2805 298 c-3 -8 -4 -75 -3 -149 l3 -134 38 -3 37 -3 0 110 0 111 74
0 c78 0 101 -12 94 -47 -3 -15 -16 -19 -78 -23 l-75 -5 -3 -38 -3 -37 75 0
c41 0 87 5 101 12 61 27 74 126 26 180 l-29 33 -126 4 c-101 2 -127 0 -131
-11z"/>
<path d="M3137 303 c-4 -3 -7 -71 -7 -150 l0 -143 35 0 35 0 0 110 0 111 81
-3 c65 -2 84 -7 93 -21 22 -34 -4 -52 -85 -57 l-74 -5 0 -30 c0 -29 1 -30 57
-33 51 -3 59 -6 83 -37 23 -31 32 -35 70 -35 24 0 46 4 49 8 3 5 -10 24 -29
42 l-33 32 19 32 c23 38 25 104 3 135 -27 38 -74 51 -187 51 -57 0 -107 -3
-110 -7z"/>
<path d="M3540 288 c-99 -50 -109 -177 -19 -253 31 -26 37 -27 125 -23 87 3
95 5 124 33 17 16 33 40 36 52 8 31 16 29 34 -10 8 -17 30 -42 49 -55 32 -21
44 -22 145 -20 l111 3 0 85 0 85 -98 3 -98 3 3 -33 c3 -33 4 -33 61 -36 49 -3
57 -6 57 -22 0 -18 -7 -20 -59 -20 -74 0 -111 25 -111 74 0 60 17 70 127 76
l98 5 0 35 0 35 -88 3 c-115 4 -169 -18 -196 -78 l-19 -42 -18 39 c-25 51 -88
83 -164 83 -38 0 -70 -7 -100 -22z m180 -78 c20 -20 27 -74 12 -96 -25 -39
-138 -48 -172 -14 -31 31 -30 85 2 113 30 25 131 24 158 -3z"/>
<path d="M4167 303 c-4 -3 -7 -71 -7 -150 l0 -144 38 3 c34 3 37 5 40 38 l3
35 59 -3 c53 -3 63 -7 89 -38 30 -33 33 -34 105 -34 l75 0 23 40 c14 24 28 38
36 35 8 -3 40 -5 73 -5 58 0 60 -1 76 -35 l17 -35 71 0 72 0 22 77 23 77 30
-69 c17 -39 36 -76 43 -84 25 -26 52 -3 86 75 37 83 36 84 64 -18 l16 -58 64
0 c73 0 75 2 95 87 6 29 15 53 19 53 5 0 20 -29 35 -65 49 -114 77 -113 127 4
l34 80 21 -77 20 -77 175 0 174 0 0 30 0 30 -97 3 -98 3 0 74 0 74 98 3 97 3
0 35 0 35 -135 0 -135 0 -5 -130 -5 -130 -30 114 c-48 184 -72 193 -136 54
l-41 -88 -34 74 c-19 40 -34 77 -34 82 0 14 -37 29 -54 23 -15 -6 -38 -72 -67
-187 -6 -26 -15 -49 -19 -52 -4 -2 -20 43 -35 101 -46 174 -76 184 -135 45
-18 -45 -36 -81 -39 -81 -3 0 -21 36 -40 81 -59 138 -90 129 -136 -41 -15 -58
-31 -109 -35 -113 -4 -4 -40 48 -81 117 -72 122 -91 143 -120 131 -8 -3 -38
-47 -68 -98 -30 -51 -65 -109 -79 -131 l-24 -38 -28 27 -29 28 19 25 c31 38
28 122 -5 154 -14 14 -39 28 -56 32 -42 8 -224 8 -232 -1z"/>
</g>
</svg>
